<?xml version="1.0" standalone="no"?>
<!DOCTYPE svg PUBLIC "-//W3C//DTD SVG 20010904//EN"
 "http://www.w3.org/TR/2001/REC-SVG-20010904/DTD/svg10.dtd">
<svg version="1.0" xmlns="http://www.w3.org/2000/svg"
 width="1280.000000pt" height="1280.000000pt" viewBox="0 0 1280.000000 1280.000000"
 preserveAspectRatio="xMidYMid meet">
<metadata>
Created by potrace 1.16, written by Peter Selinger 2001-2019
</metadata>
<g transform="translate(0.000000,1280.000000) scale(0.100000,-0.100000)"
fill="#000000" stroke="none">
<path d="M1422 11937 c-48 -18 -99 -63 -122 -107 -20 -39 -20 -61 -20 -4580 0
-4449 0 -4542 19 -4578 26 -51 68 -88 120 -107 39 -13 275 -15 2101 -15 1826
0 2062 2 2101 15 52 19 94 56 120 107 19 36 19 129 19 4578 0 4499 0 4541 -20
4579 -24 48 -79 95 -129 110 -56 16 -4142 14 -4189 -2z"/>
<path d="M7153 7655 c-32 -16 -61 -41 -79 -67 l-29 -41 -3 -2419 c-2 -2366 -2
-2419 17 -2456 26 -51 68 -88 120 -107 39 -13 275 -15 2101 -15 1826 0 2062 2
2101 15 52 19 93 55 122 110 l22 40 3 2355 c2 1503 -1 2378 -7 2419 -13 82
-47 132 -114 166 l-51 25 -2076 0 -2076 0 -51 -25z"/>
<path d="M113 1255 c-77 -39 -107 -89 -111 -184 -4 -72 -2 -78 30 -126 18 -27
51 -60 73 -72 l40 -23 6256 0 6255 0 46 29 c27 18 57 48 73 75 24 41 27 54 23
120 -4 92 -35 143 -111 181 l-51 25 -6236 0 -6236 0 -51 -25z"/>
</g>
</svg>
