<svg height="58" viewBox="0 0 60 58" width="60" xmlns="http://www.w3.org/2000/svg"><g id="Page-1" fill="none" fill-rule="evenodd"><g id="119---Back-Folder" fill="rgb(0,0,0)" fill-rule="nonzero"><path id="Shape" d="m55 10.99c.0000275-1.24206935-.5769414-2.41367644-1.5615228-3.1708659-.9845813-.75718946-2.2650447-1.01403541-3.4654772-.6951341l-2.973.794v-1.928c.0000275-1.24206935-.5769414-2.41367644-1.5615228-3.1708659-.9845813-.75718946-2.2650447-1.01403541-3.4654772-.6951341l-12.263 3.276c-.743612.19972546-1.5356798.1036738-2.21-.268l-8.271-4.52c-1.1259425-.61784068-2.4476439-.77485322-3.687-.438l-13.316 3.55c-1.31331613.34818276-2.22733729 1.53731361-2.226 2.896v46.38c.00075714 1.5634825.73282087 3.0366024 1.97854792 3.9813998 1.24572706.9447974 2.86168653 1.2524899 4.36745208.8316002h.019l28.035-7.663 1.539 1.375c.5364965.4877335 1.3103571.6127249 1.9731219.318692.6627649-.2940329 1.0894318-.9516333 1.0878781-1.676692v-1.273l8.631-2.35c8.7 3.194 10.308 10.272 10.389 10.655.0946395.4660638.5044244.8010002.98.801.033 0 .067 0 .1-.005.510991-.0513565.9000065-.4814347.9-.995 0-8-1.681-14.427-5-19.168zm-47 9.63v32.38c-.0015334.6108098-.18691012 1.207012-.532 1.711-.46677496.6721363-1.18785947 1.1244252-1.99616317 1.2520621-.80830371.1276368-1.63366731-.0804571-2.28483683-.5760621-.7504664-.5635305-1.19054886-1.4485152-1.187-2.387v-46.38c.00048166-.45098445.30276907-.84584226.738-.964l13.322-3.551c.7433517-.20056513 1.5354396-.10634572 2.211.263l8.27 4.52c1.1261694.61713207 2.4475893.77411116 3.687.438l12.261-3.27c.60004-.15857343 1.2396964-.02959231 1.7313972.34912108s.7797213.96423934.7796028 1.58487892v2.461l-34.774 9.273c-1.31331613.3481828-2.22733729 1.5373136-2.226 2.896zm1.65 34.218c.23158156-.5850982.3503379-1.2087387.35-1.838v-32.38c.0004817-.4509845.3027691-.8458423.738-.964l35.52-9.47 4.231-1.13c.60004-.15857343 1.2396964-.02959231 1.7313972.34912108s.7797213.96423932.7796028 1.58487892v24.4c-.228-.239-.455-.478-.693-.7-3.62589-3.4046919-8.3400297-5.4158267-13.307-5.677v-4.179c.0054558-.7269363-.424061-1.3867623-1.091-1.676-.6519962-.3001883-1.4202354-.1821187-1.952.3l-14.415 12.588c-.7187468.7231131-.7187468 1.8908869 0 2.614.0132522.0140971.0272736.0274508.042.04l11.041 9.862zm29.35-8.017v-1.807c1.6143655.0391814 3.2230787.2063726 4.811.5zm-1-3.821c-.5522847 0-1 .4477153-1 1v5.788l-13.92-12.434 13.92-12.148v4.794c.0002212.2732303.1122332.5344711.31.723.1966671.1897303.4630719.2896321.736.276 4.7909854.0566275 9.3894322 1.8942238 12.9 5.155 3.8 3.634 6.076 8.941 6.8 15.815-3.485-5.208-9.91-8.969-19.746-8.969z"/></g></g></svg>