<?xml version="1.0"?>
<svg xmlns="http://www.w3.org/2000/svg" xmlns:xlink="http://www.w3.org/1999/xlink" xmlns:svgjs="http://svgjs.com/svgjs" version="1.1" width="512" height="512" x="0" y="0" viewBox="0 0 24 24" style="enable-background:new 0 0 512 512" xml:space="preserve" class=""><g><path xmlns="http://www.w3.org/2000/svg" d="m23 13h-9c-.552 0-1 .448-1 1v9c0 .552.448 1 1 1h9c.552 0 1-.448 1-1v-9c0-.552-.448-1-1-1z" fill="#ffffff" data-original="#000000" style="" class=""/><path xmlns="http://www.w3.org/2000/svg" d="m1 24h9c.552 0 1-.448 1-1v-9c0-.552-.448-1-1-1h-9c-.552 0-1 .448-1 1v9c0 .552.448 1 1 1z" fill="#ffffff" data-original="#000000" style="" class=""/><path xmlns="http://www.w3.org/2000/svg" d="m23 0h-22c-.552 0-1 .448-1 1v9c0 .552.448 1 1 1h22c.552 0 1-.448 1-1v-9c0-.552-.448-1-1-1z" fill="#ffffff" data-original="#000000" style="" class=""/></g></svg>
