<?xml version="1.0"?>
<svg xmlns="http://www.w3.org/2000/svg" xmlns:xlink="http://www.w3.org/1999/xlink" xmlns:svgjs="http://svgjs.com/svgjs" version="1.1" width="512" height="512" x="0" y="0" viewBox="0 0 489.224 489.224" style="enable-background:new 0 0 512 512" xml:space="preserve"><g>
<g xmlns="http://www.w3.org/2000/svg">
	<path d="M448.575,0H186.226c-21.673,0-39.298,17.622-39.298,39.297v106.248H40.65c-21.677,0-39.293,17.623-39.293,39.297v262.381   c0,21.67,17.616,39.293,39.293,39.293h197.353c-0.239-1.199-0.548-2.351-0.694-3.582l-5.382-46.219H51.158V195.348h95.771v106.293   c0,21.678,17.625,39.295,39.298,39.295h34.564l-5.804-49.796h-18.257v-95.792h95.796V225.4l49.801,24.417v-64.976   c0-21.674-17.622-39.297-39.299-39.297H196.729V49.801h241.339V291.14H426.59l48.424,23.747c2.92,1.443,5.561,3.243,8.042,5.221   c2.965-5.529,4.81-11.752,4.81-18.467V39.297C487.867,17.622,470.249,0,448.575,0z" fill="#ffffff" data-original="#000000" style=""/>
	<path d="M460.361,344.666l-199.334-97.735c-1.607-0.778-3.326-1.168-5.042-1.168c-2.334,0-4.65,0.698-6.613,2.091   c-3.423,2.413-5.235,6.518-4.754,10.684l25.664,220.556c0.538,4.587,3.78,8.41,8.221,9.677c1.034,0.308,2.107,0.454,3.16,0.454   c3.421,0,6.744-1.558,8.932-4.311l67.064-83.959l101.404-35.194c4.374-1.509,7.391-5.498,7.686-10.117   C467.022,351.038,464.51,346.709,460.361,344.666z" fill="#ffffff" data-original="#000000" style=""/>
</g>
<g xmlns="http://www.w3.org/2000/svg">
</g>
<g xmlns="http://www.w3.org/2000/svg">
</g>
<g xmlns="http://www.w3.org/2000/svg">
</g>
<g xmlns="http://www.w3.org/2000/svg">
</g>
<g xmlns="http://www.w3.org/2000/svg">
</g>
<g xmlns="http://www.w3.org/2000/svg">
</g>
<g xmlns="http://www.w3.org/2000/svg">
</g>
<g xmlns="http://www.w3.org/2000/svg">
</g>
<g xmlns="http://www.w3.org/2000/svg">
</g>
<g xmlns="http://www.w3.org/2000/svg">
</g>
<g xmlns="http://www.w3.org/2000/svg">
</g>
<g xmlns="http://www.w3.org/2000/svg">
</g>
<g xmlns="http://www.w3.org/2000/svg">
</g>
<g xmlns="http://www.w3.org/2000/svg">
</g>
<g xmlns="http://www.w3.org/2000/svg">
</g>
</g></svg>
