<?xml version="1.0"?>
<svg xmlns="http://www.w3.org/2000/svg" xmlns:xlink="http://www.w3.org/1999/xlink" xmlns:svgjs="http://svgjs.com/svgjs" version="1.1" width="512" height="512" x="0" y="0" viewBox="0 0 512.001 512.001" style="enable-background:new 0 0 512 512" xml:space="preserve" class=""><g>
<g xmlns="http://www.w3.org/2000/svg">
	<g>
		<path d="M208.186,393.193c-0.299-0.143-0.594-0.293-0.893-0.438c-0.722,1.569-1.712,3.045-3.005,4.337    c-12.319,12.319-28.506,18.48-44.688,18.48c-16.186,0-32.368-6.16-44.689-18.482C102.973,385.154,96.4,369.283,96.4,352.402    c0-16.881,6.575-32.752,18.513-44.69l62.316-62.317c11.938-11.937,27.809-18.511,44.69-18.511    c16.881,0,32.752,6.574,44.688,18.511c0.008,0.008,0.016,0.015,0.023,0.022c6.266,6.258,14.593,9.703,23.451,9.703    c8.869-0.001,17.206-3.454,23.477-9.725l42.403-42.402c-6.053-9.309-13.08-17.986-21.023-25.93    c-7.94-7.94-16.617-14.967-25.929-21.021c-5.802-3.771-11.85-7.167-18.123-10.164c-21.283-10.165-45.062-15.538-68.766-15.538    c-23.823,0-47.718,5.424-69.101,15.685c-1.567,0.753-3.116,1.536-4.655,2.337c-14.424,7.51-27.572,17.143-39.133,28.701    l-62.484,62.484C16.602,269.692,0,309.771,0.001,352.402c0,42.63,16.602,82.708,46.746,112.853    c30.141,30.141,70.219,46.742,112.851,46.746c0.006,0,0.01,0,0.015,0c42.621,0,82.695-16.602,112.84-46.746l58.015-58.015    c-13.323,2.911-26.963,4.421-40.586,4.421C261.733,411.661,233.483,405.274,208.186,393.193z" fill="#ffffff" data-original="#000000" style="" class=""/>
	</g>
</g>
<g xmlns="http://www.w3.org/2000/svg">
	<g>
		<path d="M465.255,46.748C435.109,16.602,395.03,0,352.401,0c-42.63,0-82.709,16.602-112.854,46.748l-58.014,58.013    c13.324-2.911,26.965-4.421,40.587-4.421c28.149,0,56.399,6.386,81.695,18.467c0.3,0.144,0.596,0.295,0.894,0.439    c0.722-1.568,1.712-3.043,3.003-4.334c11.937-11.938,27.808-18.512,44.69-18.512c16.883,0,32.753,6.574,44.689,18.512    c11.937,11.936,18.511,27.806,18.511,44.687c0.001,16.881-6.574,32.753-18.512,44.69l-62.32,62.318    c-11.937,11.936-27.807,18.511-44.688,18.512c-16.852,0-32.695-6.55-44.623-18.445c-0.039-0.039-0.079-0.079-0.118-0.118    c-6.264-6.239-14.579-9.673-23.423-9.673c-8.868,0-17.205,3.453-23.477,9.725l-28.42,28.422c-0.007,0.007-0.015,0.012-0.021,0.019    l-13.96,13.96c6.054,9.313,13.081,17.99,21.021,25.932c7.941,7.94,16.618,14.967,25.929,21.018v-0.001    c5.803,3.772,11.85,7.168,18.123,10.164c21.283,10.166,45.063,15.539,68.766,15.539c23.824,0,47.719-5.424,69.102-15.686    c1.566-0.752,3.115-1.536,4.654-2.337c-0.021,0.04-0.043,0.079-0.064,0.118c0.021-0.039,0.043-0.076,0.064-0.115    c14.426-7.51,27.574-17.143,39.134-28.702l62.484-62.484C495.399,242.311,512,202.231,512,159.601    C512.001,116.971,495.399,76.892,465.255,46.748z" fill="#ffffff" data-original="#000000" style="" class=""/>
	</g>
</g>
<g xmlns="http://www.w3.org/2000/svg">
</g>
<g xmlns="http://www.w3.org/2000/svg">
</g>
<g xmlns="http://www.w3.org/2000/svg">
</g>
<g xmlns="http://www.w3.org/2000/svg">
</g>
<g xmlns="http://www.w3.org/2000/svg">
</g>
<g xmlns="http://www.w3.org/2000/svg">
</g>
<g xmlns="http://www.w3.org/2000/svg">
</g>
<g xmlns="http://www.w3.org/2000/svg">
</g>
<g xmlns="http://www.w3.org/2000/svg">
</g>
<g xmlns="http://www.w3.org/2000/svg">
</g>
<g xmlns="http://www.w3.org/2000/svg">
</g>
<g xmlns="http://www.w3.org/2000/svg">
</g>
<g xmlns="http://www.w3.org/2000/svg">
</g>
<g xmlns="http://www.w3.org/2000/svg">
</g>
<g xmlns="http://www.w3.org/2000/svg">
</g>
</g></svg>
