<?xml version="1.0"?>
<svg xmlns="http://www.w3.org/2000/svg" xmlns:xlink="http://www.w3.org/1999/xlink" version="1.1" id="Capa_1" x="0px" y="0px" viewBox="0 0 512 512" style="enable-background:new 0 0 512 512;" xml:space="preserve" width="512px" height="512px"><g><g>
	<g>
		<polygon points="375.152,346.899 471.761,346.899 471.761,306.943 306.943,306.943 306.943,471.761 346.899,471.761     346.899,375.152 483.747,512 512,483.747   " data-original="#000000" class="active-path" fill="#000000"/>
	</g>
</g><g>
	<g>
		<polygon points="512,28.253 483.747,0 346.899,136.848 346.899,40.239 306.943,40.239 306.943,205.057 471.761,205.057     471.761,165.101 375.152,165.101   " data-original="#000000" class="active-path" fill="#000000"/>
	</g>
</g><g>
	<g>
		<polygon points="40.239,306.943 40.239,346.899 136.848,346.899 0,483.747 28.253,512 165.101,375.152 165.101,471.761     205.057,471.761 205.057,306.943   " data-original="#000000" class="active-path" fill="#000000"/>
	</g>
</g><g>
	<g>
		<polygon points="165.101,40.239 165.101,136.848 28.253,0 0,28.253 136.848,165.101 40.239,165.101 40.239,205.057     205.057,205.057 205.057,40.239   " data-original="#000000" class="active-path" fill="#000000"/>
	</g>
</g></g> </svg>
