<svg height="512pt" viewBox="0 -34 512 512" width="512pt" xmlns="http://www.w3.org/2000/svg"><path d="m503.464844 0h-494.929688c-4.710937 0-8.535156 3.824219-8.535156 8.535156 0 4.707032 3.824219 8.53125 8.535156 8.53125h494.929688c4.710937 0 8.535156-3.824218 8.535156-8.53125 0-4.710937-3.824219-8.535156-8.535156-8.535156zm0 0"/><path d="m452.265625 68.265625h-162.132813c-4.710937 0-8.53125 3.824219-8.53125 8.535156v187.734375c0 4.707032 3.820313 8.53125 8.53125 8.53125h162.132813c4.710937 0 8.535156-3.824218 8.535156-8.53125v-187.734375c0-4.710937-3.824219-8.535156-8.535156-8.535156zm0 0"/><path d="m221.867188 68.265625h-162.132813c-4.710937 0-8.535156 3.824219-8.535156 8.535156v358.398438c0 4.710937 3.824219 8.535156 8.535156 8.535156h162.132813c4.710937 0 8.53125-3.824219 8.53125-8.535156v-358.398438c0-4.710937-3.820313-8.535156-8.53125-8.535156zm0 0"/></svg>