<svg height="512pt" viewBox="-34 0 512 512" width="512pt" xmlns="http://www.w3.org/2000/svg"><path d="m8.535156 0c-4.710937 0-8.535156 3.824219-8.535156 8.535156v494.929688c0 4.710937 3.824219 8.535156 8.535156 8.535156 4.707032 0 8.53125-3.824219 8.53125-8.535156v-494.929688c0-4.710937-3.824218-8.535156-8.53125-8.535156zm0 0"/><path d="m76.800781 230.398438h187.734375c4.707032 0 8.53125-3.820313 8.53125-8.53125v-153.601563c0-4.710937-3.824218-8.53125-8.53125-8.53125h-187.734375c-4.710937 0-8.535156 3.820313-8.535156 8.53125v153.601563c0 4.710937 3.824219 8.53125 8.535156 8.53125zm0 0"/><path d="m435.199219 281.601562h-358.398438c-4.710937 0-8.535156 3.820313-8.535156 8.53125v153.601563c0 4.710937 3.824219 8.53125 8.535156 8.53125h358.398438c4.710937 0 8.535156-3.820313 8.535156-8.53125v-153.601563c0-4.710937-3.824219-8.53125-8.535156-8.53125zm0 0"/></svg>