<svg height="512pt" viewBox="-68 0 512 512" width="512pt" xmlns="http://www.w3.org/2000/svg"><path d="m366.933594 281.601562h-170.667969v-51.203124h85.335937c4.707032 0 8.53125-3.820313 8.53125-8.53125v-153.601563c0-4.710937-3.824218-8.53125-8.53125-8.53125h-85.335937v-51.199219c0-4.710937-3.820313-8.535156-8.53125-8.535156s-8.535156 3.824219-8.535156 8.535156v51.199219h-85.332031c-4.710938 0-8.535157 3.820313-8.535157 8.53125v153.601563c0 4.710937 3.824219 8.53125 8.535157 8.53125h85.332031v51.203124h-170.664063c-4.710937 0-8.535156 3.820313-8.535156 8.53125v153.601563c0 4.710937 3.824219 8.53125 8.535156 8.53125h170.664063v51.199219c0 4.710937 3.824219 8.535156 8.535156 8.535156s8.53125-3.824219 8.53125-8.535156v-51.199219h170.667969c4.710937 0 8.53125-3.820313 8.53125-8.53125v-153.601563c0-4.710937-3.820313-8.53125-8.53125-8.53125zm0 0"/></svg>