<svg height="512pt" viewBox="-34 0 512 512" width="512pt" xmlns="http://www.w3.org/2000/svg"><path d="m435.199219 0c-4.710938 0-8.53125 3.824219-8.53125 8.535156v494.929688c0 4.710937 3.820312 8.535156 8.53125 8.535156 4.710937 0 8.535156-3.824219 8.535156-8.535156v-494.929688c0-4.710937-3.824219-8.535156-8.535156-8.535156zm0 0"/><path d="m366.933594 59.734375h-187.734375c-4.710938 0-8.53125 3.820313-8.53125 8.53125v153.601563c0 4.710937 3.820312 8.53125 8.53125 8.53125h187.734375c4.710937 0 8.53125-3.820313 8.53125-8.53125v-153.601563c0-4.710937-3.820313-8.53125-8.53125-8.53125zm0 0"/><path d="m366.933594 281.601562h-358.398438c-4.710937 0-8.535156 3.820313-8.535156 8.53125v153.601563c0 4.710937 3.824219 8.53125 8.535156 8.53125h358.398438c4.710937 0 8.53125-3.820313 8.53125-8.53125v-153.601563c0-4.710937-3.820313-8.53125-8.53125-8.53125zm0 0"/></svg>