<svg height="512pt" viewBox="0 -68 512 512" width="512pt" xmlns="http://www.w3.org/2000/svg"><path d="m503.464844 179.199219h-42.664063v-85.332031c0-4.710938-3.824219-8.535157-8.535156-8.535157h-162.132813c-4.710937 0-8.53125 3.824219-8.53125 8.535157v85.332031h-51.203124v-170.664063c0-4.710937-3.820313-8.535156-8.53125-8.535156h-162.132813c-4.710937 0-8.535156 3.824219-8.535156 8.535156v170.664063h-42.664063c-4.710937 0-8.535156 3.824219-8.535156 8.535156s3.824219 8.53125 8.535156 8.53125h42.664063v170.667969c0 4.710937 3.824219 8.53125 8.535156 8.53125h162.132813c4.710937 0 8.53125-3.820313 8.53125-8.53125v-170.667969h51.203124v85.335937c0 4.707032 3.820313 8.53125 8.53125 8.53125h162.132813c4.710937 0 8.535156-3.824218 8.535156-8.53125v-85.335937h42.664063c4.710937 0 8.535156-3.820313 8.535156-8.53125s-3.824219-8.535156-8.535156-8.535156zm0 0"/></svg>