<svg height="512" viewBox="0 0 512 512" width="512" xmlns="http://www.w3.org/2000/svg" xmlns:xlink="http://www.w3.org/1999/xlink"><linearGradient id="a" gradientUnits="userSpaceOnUse" x1="-16.557" x2="501.557" y1="510.483" y2="-7.63" data-name="New Gradient Swatch 1"><stop offset="0" stop-color="#003f8a"/><stop offset=".518" stop-color="#00d7df"/><stop offset="1" stop-color="#006df0"/></linearGradient><path d="m475.58 165.44a111.964 111.964 0 0 0 -64.48-35.81 152.038 152.038 0 0 0 -285.13-25.35q-2.985-.28-5.97-.28a64.072 64.072 0 0 0 -64 64c0 1.57.06 3.16.18 4.74a96.011 96.011 0 0 0 47.82 179.26h120v136a8 8 0 0 0 8 8h48a8 8 0 0 0 8-8v-136h104a112 112 0 0 0 83.58-186.56zm-195.58 130.56a8 8 0 0 0 -8 8v176h-32v-176a8 8 0 0 0 -8-8h-23.36l47.36-59.19 47.36 59.19zm112 40h-104v-24h32a8 8 0 0 0 6.25-13l-64-80a8.01 8.01 0 0 0 -12.5 0l-64 80a8 8 0 0 0 6.25 13h32v24h-120a80.011 80.011 0 0 1 -35.66-151.63 8 8 0 0 0 4.32-8.48 47.961 47.961 0 0 1 47.34-55.89 48.745 48.745 0 0 1 9.32.91 8 8 0 0 0 8.93-4.79 136.039 136.039 0 0 1 258.53 22.37 8 8 0 0 0 6.85 6.21 96 96 0 0 1 -11.63 191.3z" fill="url(#a)"/></svg>