<?xml version="1.0" encoding="utf-8"?>
<!-- Generator: Adobe Illustrator 21.0.2, SVG Export Plug-In . SVG Version: 6.00 Build 0)  -->
<svg version="1.1" id="Layer_1" xmlns="http://www.w3.org/2000/svg" xmlns:xlink="http://www.w3.org/1999/xlink" x="0px" y="0px"
	 viewBox="0 0 100 100" style="enable-background:new 0 0 100 100;" xml:space="preserve">
<path d="M93,5H7C5.9,5,5,5.9,5,7v86c0,1.1,0.9,2,2,2h86c1.1,0,2-0.9,2-2V7C95,5.9,94.1,5,93,5z M91,91H9V9h82V91z M17,62
	c0-1.1,0.9-2,2-2h62c1.1,0,2,0.9,2,2s-0.9,2-2,2H19C17.9,64,17,63.1,17,62z M75,48c1.1,0,2,0.9,2,2s-0.9,2-2,2H25c-1.1,0-2-0.9-2-2
	s0.9-2,2-2H75z M17,38c0-1.1,0.9-2,2-2h62c1.1,0,2,0.9,2,2s-0.9,2-2,2H19C17.9,40,17,39.1,17,38z"/>
</svg>
