<?xml version="1.0"?>
<svg xmlns="http://www.w3.org/2000/svg" xmlns:xlink="http://www.w3.org/1999/xlink" xmlns:svgjs="http://svgjs.com/svgjs" version="1.1" width="512" height="512" x="0" y="0" viewBox="0 0 16 16" style="enable-background:new 0 0 512 512" xml:space="preserve" class=""><g>
<path xmlns="http://www.w3.org/2000/svg" fill="#ffffff" d="M1 11h5v5h-5v-5z" data-original="#444444" style="" class=""/>
<path xmlns="http://www.w3.org/2000/svg" fill="#ffffff" d="M11 11h5v5h-5v-5z" data-original="#444444" style="" class=""/>
<path xmlns="http://www.w3.org/2000/svg" fill="#ffffff" d="M9.7 9.4l-0.7 0.6h2v-1.8l-0.6 0.5c0 0-0.6-0.5-0.9-1s-0.5-1.1-0.5-1.7h3v-6h-7v6h3c0 0.6-0.2 1.2-0.5 1.7s-0.9 1-0.9 1l-0.6-0.5v1.8h2l-0.7-0.6c0 0 0.6-0.5 1-1.2 0.1-0.1 0.1-0.2 0.2-0.3 0.1 0.1 0.1 0.2 0.2 0.3 0.4 0.7 1 1.2 1 1.2z" data-original="#444444" style="" class=""/>
</g></svg>
